<svg width="24" height="24" viewBox="0 0 24 24" fill="none" xmlns="http://www.w3.org/2000/svg">
<path d="M4.86111 22.6111C2.77778 22.6111 1.38889 21.2222 1.38889 19.1389C1.38889 18.9547 1.31572 18.7781 1.18549 18.6479C1.05526 18.5176 0.878623 18.4445 0.694444 18.4445C0.510266 18.4445 0.333632 18.5176 0.203398 18.6479C0.0731645 18.7781 0 18.9547 0 19.1389C0 21.9167 2.08333 24 4.86111 24C5.04529 24 5.22192 23.9268 5.35216 23.7966C5.48239 23.6664 5.55556 23.4897 5.55556 23.3056C5.55556 23.1214 5.48239 22.9448 5.35216 22.8145C5.22192 22.6843 5.04529 22.6111 4.86111 22.6111ZM16.6667 0.388901C16.4825 0.388901 16.3059 0.462065 16.1756 0.592299C16.0454 0.722532 15.9722 0.899167 15.9722 1.08335C15.9722 1.26752 16.0454 1.44416 16.1756 1.57439C16.3059 1.70463 16.4825 1.77779 16.6667 1.77779C19.4444 1.77779 22.2222 4.27015 22.2222 7.33335C22.2222 7.51752 22.2954 7.69416 22.4256 7.82439C22.5559 7.95463 22.7325 8.02779 22.9167 8.02779C23.1008 8.02779 23.2775 7.95463 23.4077 7.82439C23.5379 7.69416 23.6111 7.51752 23.6111 7.33335C23.6111 3.50418 20.8333 0.388901 16.6667 0.388901Z" fill="#2D2D2D" fill-opacity="0.5"/>
</svg>
